<svg xmlns="http://www.w3.org/2000/svg" viewBox="0 0 700 520" font-family="Inter, -apple-system, system-ui, sans-serif" font-size="13">
  <defs>
    <filter id="shadow" x="-2%" y="-2%" width="104%" height="104%">
      <feDropShadow dx="0" dy="1" stdDeviation="2" flood-opacity="0.08"/>
    </filter>
    <marker id="aGray" viewBox="0 0 10 10" refX="9" refY="5" markerWidth="6" markerHeight="6" orient="auto-start-reverse">
      <path d="M 0 0 L 10 5 L 0 10 z" fill="#9e9e9e"/>
    </marker>
    <marker id="aBlue" viewBox="0 0 10 10" refX="9" refY="5" markerWidth="6" markerHeight="6" orient="auto-start-reverse">
      <path d="M 0 0 L 10 5 L 0 10 z" fill="#1565c0"/>
    </marker>
    <marker id="aOrange" viewBox="0 0 10 10" refX="9" refY="5" markerWidth="6" markerHeight="6" orient="auto-start-reverse">
      <path d="M 0 0 L 10 5 L 0 10 z" fill="#f57f17"/>
    </marker>
  </defs>

  <rect width="700" height="520" fill="#fafafa" rx="8"/>
  <text x="350" y="28" text-anchor="middle" font-size="16" font-weight="600" fill="#1a1a2e">Record Pipeline — Ingest to Graph</text>

  <!-- New record arrives -->
  <rect x="230" y="48" width="240" height="36" rx="7" fill="#e3f2fd" stroke="#64b5f6" stroke-width="1.2" filter="url(#shadow)"/>
  <text x="350" y="71" text-anchor="middle" font-weight="500" fill="#1565c0">New record arrives (polling or manual)</text>

  <line x1="350" y1="84" x2="350" y2="108" stroke="#bdbdbd" stroke-width="1.2" marker-end="url(#aGray)"/>

  <!-- Expert saves -->
  <rect x="200" y="108" width="300" height="52" rx="7" fill="#e3f2fd" stroke="#64b5f6" stroke-width="1.2" filter="url(#shadow)"/>
  <text x="350" y="130" text-anchor="middle" font-weight="600" fill="#1565c0">Expert (gmailscarf / linearscarf / ...)</text>
  <text x="350" y="148" text-anchor="middle" font-size="10" fill="#42a5f5">ctx.storage.save_record() → records + typed table</text>

  <!-- Two arrows out: bus notification + storage -->
  <line x1="280" y1="160" x2="180" y2="196" stroke="#1565c0" stroke-width="1.2" marker-end="url(#aBlue)"/>
  <text x="200" y="180" font-size="9" fill="#1565c0">bus notify</text>
  <line x1="420" y1="160" x2="520" y2="196" stroke="#1565c0" stroke-width="1.2" marker-end="url(#aBlue)"/>
  <text x="480" y="180" font-size="9" fill="#1565c0">saved</text>

  <!-- Triage -->
  <rect x="80" y="196" width="220" height="52" rx="7" fill="#fff3e0" stroke="#ffb74d" stroke-width="1.2" filter="url(#shadow)"/>
  <text x="190" y="218" text-anchor="middle" font-weight="600" fill="#e65100">Triage</text>
  <text x="190" y="236" text-anchor="middle" font-size="10" fill="#ef6c00">noise? relevant? ask human?</text>

  <!-- Storage box -->
  <rect x="420" y="196" width="220" height="52" rx="7" fill="#eceff1" stroke="#90a4ae" stroke-width="1.2" filter="url(#shadow)"/>
  <text x="530" y="218" text-anchor="middle" font-weight="600" fill="#37474f">Postgres</text>
  <text x="530" y="236" text-anchor="middle" font-size="10" fill="#607d8b">records + typed table</text>

  <!-- Classification stored -->
  <line x1="300" y1="222" x2="420" y2="222" stroke="#ef6c00" stroke-width="1.2" marker-end="url(#aOrange)"/>
  <text x="360" y="215" text-anchor="middle" font-size="9" fill="#ef6c00">classification</text>

  <!-- If relevant -->
  <line x1="530" y1="248" x2="530" y2="290" stroke="#bdbdbd" stroke-width="1.2" marker-end="url(#aGray)"/>
  <text x="555" y="274" font-size="9" fill="#757575">if relevant</text>

  <!-- Extraction -->
  <rect x="380" y="290" width="300" height="72" rx="8" fill="#fff8e1" stroke="#ffd54f" stroke-width="1.2" filter="url(#shadow)"/>
  <text x="530" y="314" text-anchor="middle" font-weight="600" fill="#f57f17">Extraction</text>
  <text x="530" y="330" text-anchor="middle" font-size="10" fill="#f9a825">compose_prompt(record) → LLM extraction</text>
  <text x="530" y="346" text-anchor="middle" font-size="10" fill="#f9a825">entity resolution → fact-edges → embed</text>

  <!-- Extraction outputs -->
  <line x1="430" y1="362" x2="250" y2="406" stroke="#f57f17" stroke-width="1.2" marker-end="url(#aOrange)"/>
  <line x1="530" y1="362" x2="530" y2="406" stroke="#f57f17" stroke-width="1.2" marker-end="url(#aOrange)"/>
  <line x1="630" y1="362" x2="630" y2="406" stroke="#f57f17" stroke-width="1.2" marker-end="url(#aOrange)"/>

  <!-- Three storage boxes -->
  <rect x="80" y="406" width="180" height="44" rx="6" fill="#fff" stroke="#78909c" stroke-width="1" filter="url(#shadow)"/>
  <text x="170" y="425" text-anchor="middle" font-weight="500" fill="#37474f">Neo4j</text>
  <text x="170" y="441" text-anchor="middle" font-size="10" fill="#607d8b">entities + fact-edges</text>

  <rect x="430" y="406" width="100" height="44" rx="6" fill="#fff" stroke="#78909c" stroke-width="1" filter="url(#shadow)"/>
  <text x="480" y="425" text-anchor="middle" font-weight="500" fill="#37474f">Qdrant</text>
  <text x="480" y="441" text-anchor="middle" font-size="10" fill="#607d8b">embedding</text>

  <rect x="560" y="406" width="120" height="44" rx="6" fill="#fff" stroke="#78909c" stroke-width="1" filter="url(#shadow)"/>
  <text x="620" y="425" text-anchor="middle" font-weight="500" fill="#37474f">Curation queue</text>
  <text x="620" y="441" text-anchor="middle" font-size="10" fill="#607d8b">post-processing</text>

  <!-- mark indexed -->
  <line x1="530" y1="362" x2="530" y2="476" stroke="#9e9e9e" stroke-width="1" stroke-dasharray="4,3"/>
  <text x="540" y="490" font-size="10" fill="#757575">mark indexed</text>
</svg>
