<svg xmlns="http://www.w3.org/2000/svg" viewBox="0 0 660 600" font-family="Inter, -apple-system, system-ui, sans-serif" font-size="13">
  <defs>
    <filter id="shadow" x="-2%" y="-2%" width="104%" height="104%">
      <feDropShadow dx="0" dy="1" stdDeviation="2" flood-opacity="0.08"/>
    </filter>
    <marker id="aGray" viewBox="0 0 10 10" refX="9" refY="5" markerWidth="6" markerHeight="6" orient="auto-start-reverse">
      <path d="M 0 0 L 10 5 L 0 10 z" fill="#9e9e9e"/>
    </marker>
    <marker id="aGreen" viewBox="0 0 10 10" refX="9" refY="5" markerWidth="6" markerHeight="6" orient="auto-start-reverse">
      <path d="M 0 0 L 10 5 L 0 10 z" fill="#2e7d32"/>
    </marker>
    <marker id="aPurple" viewBox="0 0 10 10" refX="9" refY="5" markerWidth="6" markerHeight="6" orient="auto-start-reverse">
      <path d="M 0 0 L 10 5 L 0 10 z" fill="#4527a0"/>
    </marker>
  </defs>

  <rect width="660" height="600" fill="#fafafa" rx="8"/>
  <text x="330" y="28" text-anchor="middle" font-size="16" font-weight="600" fill="#1a1a2e">Retriever Query Flow</text>

  <!-- Query input -->
  <rect x="170" y="46" width="320" height="36" rx="18" fill="#e8eaf6" stroke="#7986cb" stroke-width="1.2" filter="url(#shadow)"/>
  <text x="330" y="69" text-anchor="middle" font-weight="500" font-style="italic" fill="#283593">"What do I know about Acme Corp?"</text>

  <line x1="330" y1="82" x2="330" y2="108" stroke="#9e9e9e" stroke-width="1.2" marker-end="url(#aGray)"/>

  <!-- Retriever -->
  <rect x="200" y="110" width="260" height="42" rx="8" fill="#e8f5e9" stroke="#81c784" stroke-width="1.2" filter="url(#shadow)"/>
  <text x="330" y="130" text-anchor="middle" font-weight="600" fill="#2e7d32">Retriever</text>
  <text x="330" y="145" text-anchor="middle" font-size="10" fill="#43a047">via context_query.py</text>

  <line x1="330" y1="152" x2="330" y2="176" stroke="#2e7d32" stroke-width="1.2" marker-end="url(#aGreen)"/>

  <!-- Step 1: Entity match -->
  <rect x="80" y="178" width="500" height="44" rx="7" fill="#fff" stroke="#c8e6c9" stroke-width="1.1" filter="url(#shadow)"/>
  <circle cx="108" cy="200" r="13" fill="#e8f5e9" stroke="#81c784" stroke-width="1"/>
  <text x="108" y="205" text-anchor="middle" font-weight="700" font-size="11" fill="#2e7d32">1</text>
  <text x="130" y="196" font-weight="500" fill="#2e7d32">Entity match</text>
  <text x="130" y="212" font-size="10" fill="#607d8b">find_entity("Acme Corp") → found in Neo4j graph</text>

  <line x1="330" y1="222" x2="330" y2="238" stroke="#9e9e9e" stroke-width="1" marker-end="url(#aGray)"/>

  <!-- Step 2: Facts lookup -->
  <rect x="80" y="240" width="500" height="44" rx="7" fill="#fff" stroke="#c8e6c9" stroke-width="1.1" filter="url(#shadow)"/>
  <circle cx="108" cy="262" r="13" fill="#e8f5e9" stroke="#81c784" stroke-width="1"/>
  <text x="108" y="267" text-anchor="middle" font-weight="700" font-size="11" fill="#2e7d32">2</text>
  <text x="130" y="258" font-weight="500" fill="#2e7d32">Facts lookup</text>
  <text x="130" y="274" font-size="10" fill="#607d8b">get_facts(entity_id) → AFFILIATED, ASSERTED, TRANSITIONED edges</text>

  <line x1="330" y1="284" x2="330" y2="300" stroke="#9e9e9e" stroke-width="1" marker-end="url(#aGray)"/>

  <!-- Step 3: Graph traversal -->
  <rect x="80" y="302" width="500" height="56" rx="7" fill="#fff" stroke="#c8e6c9" stroke-width="1.1" filter="url(#shadow)"/>
  <circle cx="108" cy="330" r="13" fill="#e8f5e9" stroke="#81c784" stroke-width="1"/>
  <text x="108" y="335" text-anchor="middle" font-weight="700" font-size="11" fill="#2e7d32">3</text>
  <text x="130" y="322" font-weight="500" fill="#2e7d32">Graph traversal (1-hop connections)</text>
  <text x="130" y="338" font-size="10" fill="#607d8b">Michael Chen (person) —AFFILIATED→ Acme Corp</text>
  <text x="130" y="352" font-size="10" fill="#607d8b">Meridian Deal (project) —ASSERTED→ Acme Corp</text>

  <line x1="330" y1="358" x2="330" y2="374" stroke="#9e9e9e" stroke-width="1" marker-end="url(#aGray)"/>

  <!-- Step 4: Vector search -->
  <rect x="80" y="376" width="500" height="44" rx="7" fill="#fff" stroke="#d1c4e9" stroke-width="1.1" filter="url(#shadow)"/>
  <circle cx="108" cy="398" r="13" fill="#ede7f6" stroke="#9575cd" stroke-width="1"/>
  <text x="108" y="403" text-anchor="middle" font-weight="700" font-size="11" fill="#4527a0">4</text>
  <text x="130" y="394" font-weight="500" fill="#4527a0">Vector search (semantic similarity)</text>
  <text x="130" y="410" font-size="10" fill="#607d8b">email_a3f1bc2d (scaling discussion) — score: 0.82</text>

  <line x1="330" y1="420" x2="330" y2="446" stroke="#9e9e9e" stroke-width="1.2" marker-end="url(#aGray)"/>

  <!-- Context Package -->
  <rect x="100" y="448" width="460" height="80" rx="8" fill="#e8f5e9" stroke="#66bb6a" stroke-width="1.2" filter="url(#shadow)"/>
  <text x="330" y="470" text-anchor="middle" font-weight="600" fill="#2e7d32">Context Package</text>
  <text x="130" y="490" font-size="11" fill="#37474f">facts: AFFILIATED (2) · ASSERTED (3)</text>
  <text x="130" y="506" font-size="11" fill="#37474f">connections: 2 entities (1 person, 1 project)</text>
  <text x="130" y="522" font-size="11" fill="#37474f">records: 3 (2 graph, 1 vector)</text>

  <line x1="330" y1="528" x2="330" y2="554" stroke="#9e9e9e" stroke-width="1.2" marker-end="url(#aGray)"/>

  <!-- Worker responds -->
  <rect x="170" y="556" width="320" height="32" rx="7" fill="#fff3e0" stroke="#ffb74d" stroke-width="1.1" filter="url(#shadow)"/>
  <text x="330" y="577" text-anchor="middle" font-weight="500" fill="#e65100">Worker formats and responds to human</text>

  <!-- Storage annotations on right side -->
  <text x="600" y="200" font-size="9" fill="#9e9e9e">Neo4j</text>
  <text x="600" y="262" font-size="9" fill="#9e9e9e">Neo4j</text>
  <text x="600" y="330" font-size="9" fill="#9e9e9e">Neo4j</text>
  <text x="600" y="398" font-size="9" fill="#9e9e9e">Qdrant</text>
</svg>