<svg xmlns="http://www.w3.org/2000/svg" viewBox="0 0 780 440" font-family="Inter, -apple-system, system-ui, sans-serif" font-size="13">
  <defs>
    <filter id="shadow" x="-2%" y="-2%" width="104%" height="104%">
      <feDropShadow dx="0" dy="1" stdDeviation="2" flood-opacity="0.08"/>
    </filter>
    <marker id="aGray" viewBox="0 0 10 10" refX="9" refY="5" markerWidth="6" markerHeight="6" orient="auto-start-reverse">
      <path d="M 0 0 L 10 5 L 0 10 z" fill="#9e9e9e"/>
    </marker>
    <marker id="aBlue" viewBox="0 0 10 10" refX="9" refY="5" markerWidth="6" markerHeight="6" orient="auto-start-reverse">
      <path d="M 0 0 L 10 5 L 0 10 z" fill="#1565c0"/>
    </marker>
    <marker id="aOrange" viewBox="0 0 10 10" refX="9" refY="5" markerWidth="6" markerHeight="6" orient="auto-start-reverse">
      <path d="M 0 0 L 10 5 L 0 10 z" fill="#f57f17"/>
    </marker>
  </defs>

  <rect width="780" height="440" fill="#fafafa" rx="8"/>
  <text x="390" y="28" text-anchor="middle" font-size="16" font-weight="600" fill="#1a1a2e">Write Path — Records to Graph</text>

  <!-- Expert row -->
  <rect x="60" y="50" width="140" height="40" rx="7" fill="#e3f2fd" stroke="#64b5f6" stroke-width="1.1" filter="url(#shadow)"/>
  <text x="130" y="75" text-anchor="middle" font-weight="500" fill="#1565c0">gmailscarf</text>

  <rect x="220" y="50" width="140" height="40" rx="7" fill="#e3f2fd" stroke="#64b5f6" stroke-width="1.1" filter="url(#shadow)"/>
  <text x="290" y="75" text-anchor="middle" font-weight="500" fill="#1565c0">linearscarf</text>

  <rect x="380" y="50" width="140" height="40" rx="7" fill="#e3f2fd" stroke="#64b5f6" stroke-width="1.1" filter="url(#shadow)"/>
  <text x="450" y="75" text-anchor="middle" font-weight="500" fill="#1565c0">githubscarf</text>

  <rect x="540" y="50" width="140" height="40" rx="7" fill="#e3f2fd" stroke="#64b5f6" stroke-width="1.1" filter="url(#shadow)"/>
  <text x="610" y="75" text-anchor="middle" font-weight="500" fill="#1565c0">psc ingest</text>

  <!-- All → save_record -->
  <line x1="130" y1="90" x2="350" y2="120" stroke="#1565c0" stroke-width="1" marker-end="url(#aBlue)"/>
  <line x1="290" y1="90" x2="350" y2="120" stroke="#1565c0" stroke-width="1" marker-end="url(#aBlue)"/>
  <line x1="450" y1="90" x2="410" y2="120" stroke="#1565c0" stroke-width="1" marker-end="url(#aBlue)"/>
  <line x1="610" y1="90" x2="440" y2="120" stroke="#1565c0" stroke-width="1" marker-end="url(#aBlue)"/>

  <!-- save_record -->
  <rect x="280" y="120" width="220" height="44" rx="7" fill="#e8eaf6" stroke="#7986cb" stroke-width="1.2" filter="url(#shadow)"/>
  <text x="390" y="140" text-anchor="middle" font-weight="600" fill="#283593">ctx.storage.save_record()</text>
  <text x="390" y="155" text-anchor="middle" font-size="10" fill="#5c6bc0">dedup + uuid ID + dual write</text>

  <!-- Dual write -->
  <line x1="330" y1="164" x2="200" y2="200" stroke="#7986cb" stroke-width="1.2" marker-end="url(#aGray)"/>
  <line x1="450" y1="164" x2="560" y2="200" stroke="#7986cb" stroke-width="1.2" marker-end="url(#aGray)"/>

  <rect x="80" y="200" width="240" height="44" rx="6" fill="#eceff1" stroke="#90a4ae" stroke-width="1" filter="url(#shadow)"/>
  <text x="200" y="220" text-anchor="middle" font-weight="500" fill="#37474f">records table (generic)</text>
  <text x="200" y="236" text-anchor="middle" font-size="10" fill="#607d8b">id, type, raw, content, metadata, dedup_key</text>

  <rect x="440" y="200" width="260" height="44" rx="6" fill="#eceff1" stroke="#90a4ae" stroke-width="1" filter="url(#shadow)"/>
  <text x="570" y="220" text-anchor="middle" font-weight="500" fill="#37474f">typed table (per expert)</text>
  <text x="570" y="236" text-anchor="middle" font-size="10" fill="#607d8b">e.g. gmailscarf_email_0_1_3</text>

  <!-- Indexer picks up -->
  <line x1="200" y1="244" x2="200" y2="290" stroke="#bdbdbd" stroke-width="1.2" marker-end="url(#aGray)"/>
  <text x="210" y="272" font-size="9" fill="#757575">if relevant</text>

  <rect x="80" y="290" width="240" height="50" rx="8" fill="#fff8e1" stroke="#ffd54f" stroke-width="1.2" filter="url(#shadow)"/>
  <text x="200" y="312" text-anchor="middle" font-weight="600" fill="#f57f17">Indexer</text>
  <text x="200" y="328" text-anchor="middle" font-size="10" fill="#f9a825">extraction + resolution + embed</text>

  <!-- Indexer outputs -->
  <line x1="130" y1="340" x2="130" y2="380" stroke="#f57f17" stroke-width="1.2" marker-end="url(#aOrange)"/>
  <line x1="200" y1="340" x2="390" y2="380" stroke="#f57f17" stroke-width="1.2" marker-end="url(#aOrange)"/>
  <line x1="270" y1="340" x2="580" y2="380" stroke="#f57f17" stroke-width="1.2" marker-end="url(#aOrange)"/>

  <rect x="60" y="380" width="140" height="40" rx="6" fill="#fff" stroke="#78909c" stroke-width="1"/>
  <text x="130" y="405" text-anchor="middle" font-weight="500" fill="#37474f">Neo4j</text>

  <rect x="320" y="380" width="140" height="40" rx="6" fill="#fff" stroke="#78909c" stroke-width="1"/>
  <text x="390" y="405" text-anchor="middle" font-weight="500" fill="#37474f">Qdrant</text>

  <rect x="510" y="380" width="160" height="40" rx="6" fill="#fff" stroke="#78909c" stroke-width="1"/>
  <text x="590" y="405" text-anchor="middle" font-weight="500" fill="#37474f">curator_queue</text>
</svg>
